<mxfile host="app.diagrams.net" modified="2021-04-14T00:46:25.303Z" agent="5.0 (Windows NT 10.0; Win64; x64) AppleWebKit/537.36 (KHTML, like Gecko) Chrome/89.0.4389.128 Safari/537.36" etag="G00y4pbHfDh5w0zcWY7j" version="14.5.10" type="github">
  <diagram id="R2lEEEUBdFMjLlhIrx00" name="Page-1">
    <mxGraphModel dx="1715" dy="457" grid="1" gridSize="10" guides="1" tooltips="1" connect="1" arrows="1" fold="1" page="1" pageScale="1" pageWidth="850" pageHeight="1100" math="0" shadow="0" extFonts="Permanent Marker^https://fonts.googleapis.com/css?family=Permanent+Marker">
      <root>
        <mxCell id="0" />
        <mxCell id="1" parent="0" />
        <mxCell id="Pn6tv7g3iC-lhxeTIys7-1" value="회원" style="rounded=0;whiteSpace=wrap;html=1;" vertex="1" parent="1">
          <mxGeometry x="200" y="120" width="70" height="40" as="geometry" />
        </mxCell>
        <mxCell id="Pn6tv7g3iC-lhxeTIys7-2" value="강의" style="rounded=0;whiteSpace=wrap;html=1;" vertex="1" parent="1">
          <mxGeometry x="200" y="340" width="70" height="40" as="geometry" />
        </mxCell>
        <mxCell id="Pn6tv7g3iC-lhxeTIys7-3" value="강의 신청" style="rounded=0;whiteSpace=wrap;html=1;rotation=90;" vertex="1" parent="1">
          <mxGeometry x="200" y="240" width="70" height="40" as="geometry" />
        </mxCell>
        <mxCell id="Pn6tv7g3iC-lhxeTIys7-4" value="상담 일지" style="rounded=0;whiteSpace=wrap;html=1;" vertex="1" parent="1">
          <mxGeometry x="810" y="120" width="70" height="40" as="geometry" />
        </mxCell>
        <mxCell id="Pn6tv7g3iC-lhxeTIys7-5" value="건의사항" style="rounded=0;whiteSpace=wrap;html=1;" vertex="1" parent="1">
          <mxGeometry x="-210" y="120" width="70" height="40" as="geometry" />
        </mxCell>
        <mxCell id="Pn6tv7g3iC-lhxeTIys7-6" value="훈련 일지" style="rounded=0;whiteSpace=wrap;html=1;" vertex="1" parent="1">
          <mxGeometry x="840" y="340" width="70" height="40" as="geometry" />
        </mxCell>
        <mxCell id="Pn6tv7g3iC-lhxeTIys7-8" value="ID" style="ellipse;whiteSpace=wrap;html=1;" vertex="1" parent="1">
          <mxGeometry x="30" y="40" width="60" height="40" as="geometry" />
        </mxCell>
        <mxCell id="Pn6tv7g3iC-lhxeTIys7-9" value="PW" style="ellipse;whiteSpace=wrap;html=1;" vertex="1" parent="1">
          <mxGeometry x="100" y="40" width="60" height="40" as="geometry" />
        </mxCell>
        <mxCell id="Pn6tv7g3iC-lhxeTIys7-10" value="회원 번호" style="ellipse;whiteSpace=wrap;html=1;" vertex="1" parent="1">
          <mxGeometry x="170" y="40" width="60" height="40" as="geometry" />
        </mxCell>
        <mxCell id="Pn6tv7g3iC-lhxeTIys7-11" value="이름" style="ellipse;whiteSpace=wrap;html=1;" vertex="1" parent="1">
          <mxGeometry x="240" y="40" width="60" height="40" as="geometry" />
        </mxCell>
        <mxCell id="Pn6tv7g3iC-lhxeTIys7-12" value="연락처" style="ellipse;whiteSpace=wrap;html=1;" vertex="1" parent="1">
          <mxGeometry x="310" y="40" width="60" height="40" as="geometry" />
        </mxCell>
        <mxCell id="Pn6tv7g3iC-lhxeTIys7-13" value="" style="endArrow=none;html=1;entryX=0.5;entryY=1;entryDx=0;entryDy=0;exitX=0.5;exitY=0;exitDx=0;exitDy=0;" edge="1" parent="1" source="Pn6tv7g3iC-lhxeTIys7-1" target="Pn6tv7g3iC-lhxeTIys7-8">
          <mxGeometry width="50" height="50" relative="1" as="geometry">
            <mxPoint x="400" y="310" as="sourcePoint" />
            <mxPoint x="450" y="260" as="targetPoint" />
          </mxGeometry>
        </mxCell>
        <mxCell id="Pn6tv7g3iC-lhxeTIys7-14" value="" style="endArrow=none;html=1;entryX=0.5;entryY=1;entryDx=0;entryDy=0;exitX=0.5;exitY=0;exitDx=0;exitDy=0;" edge="1" parent="1" source="Pn6tv7g3iC-lhxeTIys7-1" target="Pn6tv7g3iC-lhxeTIys7-9">
          <mxGeometry width="50" height="50" relative="1" as="geometry">
            <mxPoint x="240" y="90" as="sourcePoint" />
            <mxPoint x="70" y="90" as="targetPoint" />
          </mxGeometry>
        </mxCell>
        <mxCell id="Pn6tv7g3iC-lhxeTIys7-15" value="" style="endArrow=none;html=1;entryX=0.5;entryY=1;entryDx=0;entryDy=0;exitX=0.5;exitY=0;exitDx=0;exitDy=0;" edge="1" parent="1" source="Pn6tv7g3iC-lhxeTIys7-1" target="Pn6tv7g3iC-lhxeTIys7-10">
          <mxGeometry width="50" height="50" relative="1" as="geometry">
            <mxPoint x="210" y="130" as="sourcePoint" />
            <mxPoint x="140" y="90" as="targetPoint" />
          </mxGeometry>
        </mxCell>
        <mxCell id="Pn6tv7g3iC-lhxeTIys7-16" value="" style="endArrow=none;html=1;entryX=0.5;entryY=1;entryDx=0;entryDy=0;exitX=0.5;exitY=0;exitDx=0;exitDy=0;" edge="1" parent="1" source="Pn6tv7g3iC-lhxeTIys7-1" target="Pn6tv7g3iC-lhxeTIys7-11">
          <mxGeometry width="50" height="50" relative="1" as="geometry">
            <mxPoint x="210" y="130" as="sourcePoint" />
            <mxPoint x="210" y="90" as="targetPoint" />
          </mxGeometry>
        </mxCell>
        <mxCell id="Pn6tv7g3iC-lhxeTIys7-17" value="" style="endArrow=none;html=1;entryX=0.5;entryY=1;entryDx=0;entryDy=0;exitX=0.5;exitY=0;exitDx=0;exitDy=0;" edge="1" parent="1" source="Pn6tv7g3iC-lhxeTIys7-1" target="Pn6tv7g3iC-lhxeTIys7-12">
          <mxGeometry width="50" height="50" relative="1" as="geometry">
            <mxPoint x="210" y="130" as="sourcePoint" />
            <mxPoint x="280" y="90" as="targetPoint" />
          </mxGeometry>
        </mxCell>
        <mxCell id="Pn6tv7g3iC-lhxeTIys7-18" value="회원 등급" style="ellipse;whiteSpace=wrap;html=1;" vertex="1" parent="1">
          <mxGeometry x="380" y="40" width="60" height="40" as="geometry" />
        </mxCell>
        <mxCell id="Pn6tv7g3iC-lhxeTIys7-19" value="" style="endArrow=none;html=1;entryX=0.5;entryY=1;entryDx=0;entryDy=0;exitX=0.5;exitY=0;exitDx=0;exitDy=0;" edge="1" parent="1" source="Pn6tv7g3iC-lhxeTIys7-1" target="Pn6tv7g3iC-lhxeTIys7-18">
          <mxGeometry width="50" height="50" relative="1" as="geometry">
            <mxPoint x="310" y="140" as="sourcePoint" />
            <mxPoint x="350" y="90" as="targetPoint" />
          </mxGeometry>
        </mxCell>
        <mxCell id="Pn6tv7g3iC-lhxeTIys7-20" value="강의 코드" style="ellipse;whiteSpace=wrap;html=1;" vertex="1" parent="1">
          <mxGeometry x="30" y="440" width="60" height="40" as="geometry" />
        </mxCell>
        <mxCell id="Pn6tv7g3iC-lhxeTIys7-21" value="과정명" style="ellipse;whiteSpace=wrap;html=1;" vertex="1" parent="1">
          <mxGeometry x="100" y="440" width="60" height="40" as="geometry" />
        </mxCell>
        <mxCell id="Pn6tv7g3iC-lhxeTIys7-22" value="담당 교수" style="ellipse;whiteSpace=wrap;html=1;" vertex="1" parent="1">
          <mxGeometry x="170" y="440" width="60" height="40" as="geometry" />
        </mxCell>
        <mxCell id="Pn6tv7g3iC-lhxeTIys7-23" value="강의 개강일" style="ellipse;whiteSpace=wrap;html=1;" vertex="1" parent="1">
          <mxGeometry x="240" y="440" width="70" height="40" as="geometry" />
        </mxCell>
        <mxCell id="Pn6tv7g3iC-lhxeTIys7-27" value="강의 종료일" style="ellipse;whiteSpace=wrap;html=1;" vertex="1" parent="1">
          <mxGeometry x="320" y="440" width="70" height="40" as="geometry" />
        </mxCell>
        <mxCell id="Pn6tv7g3iC-lhxeTIys7-28" value="요일" style="ellipse;whiteSpace=wrap;html=1;" vertex="1" parent="1">
          <mxGeometry x="400" y="440" width="60" height="40" as="geometry" />
        </mxCell>
        <mxCell id="Pn6tv7g3iC-lhxeTIys7-29" value="강의 타입" style="ellipse;whiteSpace=wrap;html=1;" vertex="1" parent="1">
          <mxGeometry x="470" y="440" width="60" height="40" as="geometry" />
        </mxCell>
        <mxCell id="Pn6tv7g3iC-lhxeTIys7-30" value="모집 인원" style="ellipse;whiteSpace=wrap;html=1;" vertex="1" parent="1">
          <mxGeometry x="540" y="440" width="60" height="40" as="geometry" />
        </mxCell>
        <mxCell id="Pn6tv7g3iC-lhxeTIys7-31" value="" style="endArrow=none;html=1;entryX=0.5;entryY=1;entryDx=0;entryDy=0;exitX=0.5;exitY=0;exitDx=0;exitDy=0;" edge="1" parent="1" source="Pn6tv7g3iC-lhxeTIys7-20" target="Pn6tv7g3iC-lhxeTIys7-2">
          <mxGeometry width="50" height="50" relative="1" as="geometry">
            <mxPoint x="370" y="360" as="sourcePoint" />
            <mxPoint x="420" y="310" as="targetPoint" />
          </mxGeometry>
        </mxCell>
        <mxCell id="Pn6tv7g3iC-lhxeTIys7-32" value="" style="endArrow=none;html=1;entryX=0.5;entryY=1;entryDx=0;entryDy=0;exitX=0.5;exitY=0;exitDx=0;exitDy=0;" edge="1" parent="1" source="Pn6tv7g3iC-lhxeTIys7-21" target="Pn6tv7g3iC-lhxeTIys7-2">
          <mxGeometry width="50" height="50" relative="1" as="geometry">
            <mxPoint x="70" y="450" as="sourcePoint" />
            <mxPoint x="335" y="390" as="targetPoint" />
          </mxGeometry>
        </mxCell>
        <mxCell id="Pn6tv7g3iC-lhxeTIys7-33" value="" style="endArrow=none;html=1;entryX=0.5;entryY=1;entryDx=0;entryDy=0;exitX=0.5;exitY=0;exitDx=0;exitDy=0;" edge="1" parent="1" source="Pn6tv7g3iC-lhxeTIys7-22" target="Pn6tv7g3iC-lhxeTIys7-2">
          <mxGeometry width="50" height="50" relative="1" as="geometry">
            <mxPoint x="140" y="450" as="sourcePoint" />
            <mxPoint x="335" y="390" as="targetPoint" />
          </mxGeometry>
        </mxCell>
        <mxCell id="Pn6tv7g3iC-lhxeTIys7-34" value="" style="endArrow=none;html=1;entryX=0.5;entryY=1;entryDx=0;entryDy=0;exitX=0.5;exitY=0;exitDx=0;exitDy=0;" edge="1" parent="1" source="Pn6tv7g3iC-lhxeTIys7-23" target="Pn6tv7g3iC-lhxeTIys7-2">
          <mxGeometry width="50" height="50" relative="1" as="geometry">
            <mxPoint x="210" y="450" as="sourcePoint" />
            <mxPoint x="335" y="390" as="targetPoint" />
          </mxGeometry>
        </mxCell>
        <mxCell id="Pn6tv7g3iC-lhxeTIys7-35" value="" style="endArrow=none;html=1;entryX=0.5;entryY=1;entryDx=0;entryDy=0;exitX=0.5;exitY=0;exitDx=0;exitDy=0;" edge="1" parent="1" source="Pn6tv7g3iC-lhxeTIys7-27" target="Pn6tv7g3iC-lhxeTIys7-2">
          <mxGeometry width="50" height="50" relative="1" as="geometry">
            <mxPoint x="285" y="450" as="sourcePoint" />
            <mxPoint x="335" y="390" as="targetPoint" />
          </mxGeometry>
        </mxCell>
        <mxCell id="Pn6tv7g3iC-lhxeTIys7-36" value="" style="endArrow=none;html=1;entryX=0.5;entryY=1;entryDx=0;entryDy=0;exitX=0.5;exitY=0;exitDx=0;exitDy=0;" edge="1" parent="1" source="Pn6tv7g3iC-lhxeTIys7-28" target="Pn6tv7g3iC-lhxeTIys7-2">
          <mxGeometry width="50" height="50" relative="1" as="geometry">
            <mxPoint x="365" y="450" as="sourcePoint" />
            <mxPoint x="335" y="390" as="targetPoint" />
          </mxGeometry>
        </mxCell>
        <mxCell id="Pn6tv7g3iC-lhxeTIys7-37" value="" style="endArrow=none;html=1;entryX=0.5;entryY=1;entryDx=0;entryDy=0;exitX=0.5;exitY=0;exitDx=0;exitDy=0;" edge="1" parent="1" source="Pn6tv7g3iC-lhxeTIys7-29" target="Pn6tv7g3iC-lhxeTIys7-2">
          <mxGeometry width="50" height="50" relative="1" as="geometry">
            <mxPoint x="440" y="450" as="sourcePoint" />
            <mxPoint x="335" y="390" as="targetPoint" />
          </mxGeometry>
        </mxCell>
        <mxCell id="Pn6tv7g3iC-lhxeTIys7-38" value="" style="endArrow=none;html=1;entryX=0.5;entryY=1;entryDx=0;entryDy=0;exitX=0.5;exitY=0;exitDx=0;exitDy=0;" edge="1" parent="1" source="Pn6tv7g3iC-lhxeTIys7-30" target="Pn6tv7g3iC-lhxeTIys7-2">
          <mxGeometry width="50" height="50" relative="1" as="geometry">
            <mxPoint x="510" y="450" as="sourcePoint" />
            <mxPoint x="335" y="390" as="targetPoint" />
          </mxGeometry>
        </mxCell>
        <mxCell id="Pn6tv7g3iC-lhxeTIys7-39" value="회원 번호" style="ellipse;whiteSpace=wrap;html=1;rotation=90;" vertex="1" parent="1">
          <mxGeometry x="90" y="170" width="60" height="40" as="geometry" />
        </mxCell>
        <mxCell id="Pn6tv7g3iC-lhxeTIys7-40" value="강의 코드" style="ellipse;whiteSpace=wrap;html=1;rotation=90;" vertex="1" parent="1">
          <mxGeometry x="90" y="240" width="60" height="40" as="geometry" />
        </mxCell>
        <mxCell id="Pn6tv7g3iC-lhxeTIys7-41" value="신청일" style="ellipse;whiteSpace=wrap;html=1;rotation=90;" vertex="1" parent="1">
          <mxGeometry x="90" y="310" width="60" height="40" as="geometry" />
        </mxCell>
        <mxCell id="Pn6tv7g3iC-lhxeTIys7-42" value="" style="endArrow=none;html=1;entryX=0.5;entryY=1;entryDx=0;entryDy=0;exitX=0.5;exitY=0;exitDx=0;exitDy=0;" edge="1" parent="1" source="Pn6tv7g3iC-lhxeTIys7-39" target="Pn6tv7g3iC-lhxeTIys7-3">
          <mxGeometry width="50" height="50" relative="1" as="geometry">
            <mxPoint x="430" y="350" as="sourcePoint" />
            <mxPoint x="605" y="290" as="targetPoint" />
          </mxGeometry>
        </mxCell>
        <mxCell id="Pn6tv7g3iC-lhxeTIys7-43" value="" style="endArrow=none;html=1;entryX=0.5;entryY=1;entryDx=0;entryDy=0;exitX=0.5;exitY=0;exitDx=0;exitDy=0;" edge="1" parent="1" source="Pn6tv7g3iC-lhxeTIys7-40" target="Pn6tv7g3iC-lhxeTIys7-3">
          <mxGeometry width="50" height="50" relative="1" as="geometry">
            <mxPoint x="170" y="350" as="sourcePoint" />
            <mxPoint x="245" y="290" as="targetPoint" />
          </mxGeometry>
        </mxCell>
        <mxCell id="Pn6tv7g3iC-lhxeTIys7-44" value="" style="endArrow=none;html=1;entryX=0.5;entryY=1;entryDx=0;entryDy=0;exitX=0.5;exitY=0;exitDx=0;exitDy=0;" edge="1" parent="1" source="Pn6tv7g3iC-lhxeTIys7-41" target="Pn6tv7g3iC-lhxeTIys7-3">
          <mxGeometry width="50" height="50" relative="1" as="geometry">
            <mxPoint x="245" y="350" as="sourcePoint" />
            <mxPoint x="245" y="290" as="targetPoint" />
          </mxGeometry>
        </mxCell>
        <mxCell id="Pn6tv7g3iC-lhxeTIys7-45" value="번호" style="ellipse;whiteSpace=wrap;html=1;" vertex="1" parent="1">
          <mxGeometry x="640" y="440" width="60" height="40" as="geometry" />
        </mxCell>
        <mxCell id="Pn6tv7g3iC-lhxeTIys7-46" value="작성일" style="ellipse;whiteSpace=wrap;html=1;" vertex="1" parent="1">
          <mxGeometry x="680" y="480" width="60" height="40" as="geometry" />
        </mxCell>
        <mxCell id="Pn6tv7g3iC-lhxeTIys7-47" value="재적" style="ellipse;whiteSpace=wrap;html=1;" vertex="1" parent="1">
          <mxGeometry x="730" y="440" width="60" height="40" as="geometry" />
        </mxCell>
        <mxCell id="Pn6tv7g3iC-lhxeTIys7-48" value="출석" style="ellipse;whiteSpace=wrap;html=1;" vertex="1" parent="1">
          <mxGeometry x="780" y="480" width="60" height="40" as="geometry" />
        </mxCell>
        <mxCell id="Pn6tv7g3iC-lhxeTIys7-50" value="결석" style="ellipse;whiteSpace=wrap;html=1;" vertex="1" parent="1">
          <mxGeometry x="830" y="440" width="60" height="40" as="geometry" />
        </mxCell>
        <mxCell id="Pn6tv7g3iC-lhxeTIys7-51" value="지각" style="ellipse;whiteSpace=wrap;html=1;" vertex="1" parent="1">
          <mxGeometry x="880" y="480" width="60" height="40" as="geometry" />
        </mxCell>
        <mxCell id="Pn6tv7g3iC-lhxeTIys7-52" value="조퇴" style="ellipse;whiteSpace=wrap;html=1;" vertex="1" parent="1">
          <mxGeometry x="930" y="440" width="60" height="40" as="geometry" />
        </mxCell>
        <mxCell id="Pn6tv7g3iC-lhxeTIys7-54" value="특이사항" style="ellipse;whiteSpace=wrap;html=1;" vertex="1" parent="1">
          <mxGeometry x="980" y="480" width="60" height="40" as="geometry" />
        </mxCell>
        <mxCell id="Pn6tv7g3iC-lhxeTIys7-55" value="결재" style="ellipse;whiteSpace=wrap;html=1;" vertex="1" parent="1">
          <mxGeometry x="1020" y="440" width="60" height="40" as="geometry" />
        </mxCell>
        <mxCell id="Pn6tv7g3iC-lhxeTIys7-56" value="관리" style="ellipse;whiteSpace=wrap;html=1;" vertex="1" parent="1">
          <mxGeometry x="1070" y="480" width="60" height="40" as="geometry" />
        </mxCell>
        <mxCell id="Pn6tv7g3iC-lhxeTIys7-57" value="" style="endArrow=none;html=1;entryX=0.5;entryY=1;entryDx=0;entryDy=0;exitX=0.5;exitY=0;exitDx=0;exitDy=0;" edge="1" parent="1" source="Pn6tv7g3iC-lhxeTIys7-45" target="Pn6tv7g3iC-lhxeTIys7-6">
          <mxGeometry width="50" height="50" relative="1" as="geometry">
            <mxPoint x="930" y="440" as="sourcePoint" />
            <mxPoint x="980" y="390" as="targetPoint" />
          </mxGeometry>
        </mxCell>
        <mxCell id="Pn6tv7g3iC-lhxeTIys7-58" value="" style="endArrow=none;html=1;entryX=0.5;entryY=1;entryDx=0;entryDy=0;exitX=0.5;exitY=0;exitDx=0;exitDy=0;" edge="1" parent="1" source="Pn6tv7g3iC-lhxeTIys7-46" target="Pn6tv7g3iC-lhxeTIys7-6">
          <mxGeometry width="50" height="50" relative="1" as="geometry">
            <mxPoint x="680" y="449.9999999999999" as="sourcePoint" />
            <mxPoint x="895" y="390" as="targetPoint" />
          </mxGeometry>
        </mxCell>
        <mxCell id="Pn6tv7g3iC-lhxeTIys7-59" value="" style="endArrow=none;html=1;entryX=0.5;entryY=1;entryDx=0;entryDy=0;exitX=0.5;exitY=0;exitDx=0;exitDy=0;" edge="1" parent="1" source="Pn6tv7g3iC-lhxeTIys7-47" target="Pn6tv7g3iC-lhxeTIys7-6">
          <mxGeometry width="50" height="50" relative="1" as="geometry">
            <mxPoint x="720" y="489.9999999999999" as="sourcePoint" />
            <mxPoint x="895" y="390" as="targetPoint" />
          </mxGeometry>
        </mxCell>
        <mxCell id="Pn6tv7g3iC-lhxeTIys7-60" value="" style="endArrow=none;html=1;entryX=0.5;entryY=1;entryDx=0;entryDy=0;exitX=0.5;exitY=0;exitDx=0;exitDy=0;" edge="1" parent="1" source="Pn6tv7g3iC-lhxeTIys7-48" target="Pn6tv7g3iC-lhxeTIys7-6">
          <mxGeometry width="50" height="50" relative="1" as="geometry">
            <mxPoint x="770" y="449.9999999999999" as="sourcePoint" />
            <mxPoint x="895" y="390" as="targetPoint" />
          </mxGeometry>
        </mxCell>
        <mxCell id="Pn6tv7g3iC-lhxeTIys7-61" value="" style="endArrow=none;html=1;entryX=0.5;entryY=1;entryDx=0;entryDy=0;exitX=0.5;exitY=0;exitDx=0;exitDy=0;" edge="1" parent="1" source="Pn6tv7g3iC-lhxeTIys7-50" target="Pn6tv7g3iC-lhxeTIys7-6">
          <mxGeometry width="50" height="50" relative="1" as="geometry">
            <mxPoint x="820" y="489.9999999999999" as="sourcePoint" />
            <mxPoint x="895" y="390" as="targetPoint" />
          </mxGeometry>
        </mxCell>
        <mxCell id="Pn6tv7g3iC-lhxeTIys7-62" value="" style="endArrow=none;html=1;entryX=0.5;entryY=1;entryDx=0;entryDy=0;exitX=0.5;exitY=0;exitDx=0;exitDy=0;" edge="1" parent="1" source="Pn6tv7g3iC-lhxeTIys7-51" target="Pn6tv7g3iC-lhxeTIys7-6">
          <mxGeometry width="50" height="50" relative="1" as="geometry">
            <mxPoint x="870" y="449.9999999999999" as="sourcePoint" />
            <mxPoint x="895" y="390" as="targetPoint" />
          </mxGeometry>
        </mxCell>
        <mxCell id="Pn6tv7g3iC-lhxeTIys7-63" value="" style="endArrow=none;html=1;entryX=0.5;entryY=1;entryDx=0;entryDy=0;exitX=0.5;exitY=0;exitDx=0;exitDy=0;" edge="1" parent="1" source="Pn6tv7g3iC-lhxeTIys7-52" target="Pn6tv7g3iC-lhxeTIys7-6">
          <mxGeometry width="50" height="50" relative="1" as="geometry">
            <mxPoint x="920" y="489.9999999999999" as="sourcePoint" />
            <mxPoint x="895" y="390" as="targetPoint" />
          </mxGeometry>
        </mxCell>
        <mxCell id="Pn6tv7g3iC-lhxeTIys7-64" value="" style="endArrow=none;html=1;entryX=0.5;entryY=1;entryDx=0;entryDy=0;exitX=0.5;exitY=0;exitDx=0;exitDy=0;" edge="1" parent="1" source="Pn6tv7g3iC-lhxeTIys7-54" target="Pn6tv7g3iC-lhxeTIys7-6">
          <mxGeometry width="50" height="50" relative="1" as="geometry">
            <mxPoint x="970" y="449.9999999999999" as="sourcePoint" />
            <mxPoint x="895" y="390" as="targetPoint" />
          </mxGeometry>
        </mxCell>
        <mxCell id="Pn6tv7g3iC-lhxeTIys7-65" value="" style="endArrow=none;html=1;entryX=0.5;entryY=1;entryDx=0;entryDy=0;exitX=0.5;exitY=0;exitDx=0;exitDy=0;" edge="1" parent="1" source="Pn6tv7g3iC-lhxeTIys7-55" target="Pn6tv7g3iC-lhxeTIys7-6">
          <mxGeometry width="50" height="50" relative="1" as="geometry">
            <mxPoint x="1020" y="489.9999999999999" as="sourcePoint" />
            <mxPoint x="895" y="390" as="targetPoint" />
          </mxGeometry>
        </mxCell>
        <mxCell id="Pn6tv7g3iC-lhxeTIys7-66" value="" style="endArrow=none;html=1;entryX=0.5;entryY=1;entryDx=0;entryDy=0;exitX=0.5;exitY=0;exitDx=0;exitDy=0;" edge="1" parent="1" source="Pn6tv7g3iC-lhxeTIys7-56" target="Pn6tv7g3iC-lhxeTIys7-6">
          <mxGeometry width="50" height="50" relative="1" as="geometry">
            <mxPoint x="1060" y="449.9999999999999" as="sourcePoint" />
            <mxPoint x="895" y="390" as="targetPoint" />
          </mxGeometry>
        </mxCell>
        <mxCell id="Pn6tv7g3iC-lhxeTIys7-67" value="번호" style="ellipse;whiteSpace=wrap;html=1;" vertex="1" parent="1">
          <mxGeometry x="570" y="10" width="60" height="40" as="geometry" />
        </mxCell>
        <mxCell id="Pn6tv7g3iC-lhxeTIys7-68" value="이미지" style="ellipse;whiteSpace=wrap;html=1;" vertex="1" parent="1">
          <mxGeometry x="640" y="10" width="60" height="40" as="geometry" />
        </mxCell>
        <mxCell id="Pn6tv7g3iC-lhxeTIys7-69" value="학생코드" style="ellipse;whiteSpace=wrap;html=1;" vertex="1" parent="1">
          <mxGeometry x="710" y="10" width="60" height="40" as="geometry" />
        </mxCell>
        <mxCell id="Pn6tv7g3iC-lhxeTIys7-70" value="이름" style="ellipse;whiteSpace=wrap;html=1;" vertex="1" parent="1">
          <mxGeometry x="780" y="10" width="60" height="40" as="geometry" />
        </mxCell>
        <mxCell id="Pn6tv7g3iC-lhxeTIys7-71" value="연락처" style="ellipse;whiteSpace=wrap;html=1;" vertex="1" parent="1">
          <mxGeometry x="850" y="10" width="60" height="40" as="geometry" />
        </mxCell>
        <mxCell id="Pn6tv7g3iC-lhxeTIys7-72" value="주민번호" style="ellipse;whiteSpace=wrap;html=1;" vertex="1" parent="1">
          <mxGeometry x="920" y="10" width="60" height="40" as="geometry" />
        </mxCell>
        <mxCell id="Pn6tv7g3iC-lhxeTIys7-74" value="상태" style="ellipse;whiteSpace=wrap;html=1;" vertex="1" parent="1">
          <mxGeometry x="990" y="10" width="60" height="40" as="geometry" />
        </mxCell>
        <mxCell id="Pn6tv7g3iC-lhxeTIys7-75" value="최종상담일" style="ellipse;whiteSpace=wrap;html=1;" vertex="1" parent="1">
          <mxGeometry x="1060" y="10" width="70" height="40" as="geometry" />
        </mxCell>
        <mxCell id="Pn6tv7g3iC-lhxeTIys7-76" value="" style="endArrow=none;html=1;entryX=0.5;entryY=1;entryDx=0;entryDy=0;exitX=0.5;exitY=0;exitDx=0;exitDy=0;" edge="1" parent="1" source="Pn6tv7g3iC-lhxeTIys7-4" target="Pn6tv7g3iC-lhxeTIys7-67">
          <mxGeometry width="50" height="50" relative="1" as="geometry">
            <mxPoint x="860" y="340" as="sourcePoint" />
            <mxPoint x="910" y="290" as="targetPoint" />
          </mxGeometry>
        </mxCell>
        <mxCell id="Pn6tv7g3iC-lhxeTIys7-78" value="" style="endArrow=none;html=1;entryX=0.5;entryY=1;entryDx=0;entryDy=0;exitX=0.5;exitY=0;exitDx=0;exitDy=0;" edge="1" parent="1" source="Pn6tv7g3iC-lhxeTIys7-4" target="Pn6tv7g3iC-lhxeTIys7-68">
          <mxGeometry width="50" height="50" relative="1" as="geometry">
            <mxPoint x="885" y="130" as="sourcePoint" />
            <mxPoint x="610" y="60" as="targetPoint" />
          </mxGeometry>
        </mxCell>
        <mxCell id="Pn6tv7g3iC-lhxeTIys7-79" value="" style="endArrow=none;html=1;entryX=0.5;entryY=1;entryDx=0;entryDy=0;exitX=0.5;exitY=0;exitDx=0;exitDy=0;" edge="1" parent="1" source="Pn6tv7g3iC-lhxeTIys7-4" target="Pn6tv7g3iC-lhxeTIys7-69">
          <mxGeometry width="50" height="50" relative="1" as="geometry">
            <mxPoint x="885" y="130" as="sourcePoint" />
            <mxPoint x="680" y="60" as="targetPoint" />
          </mxGeometry>
        </mxCell>
        <mxCell id="Pn6tv7g3iC-lhxeTIys7-80" value="" style="endArrow=none;html=1;entryX=0.5;entryY=1;entryDx=0;entryDy=0;exitX=0.5;exitY=0;exitDx=0;exitDy=0;" edge="1" parent="1" source="Pn6tv7g3iC-lhxeTIys7-4" target="Pn6tv7g3iC-lhxeTIys7-70">
          <mxGeometry width="50" height="50" relative="1" as="geometry">
            <mxPoint x="910" y="90" as="sourcePoint" />
            <mxPoint x="750" y="60" as="targetPoint" />
          </mxGeometry>
        </mxCell>
        <mxCell id="Pn6tv7g3iC-lhxeTIys7-81" value="" style="endArrow=none;html=1;entryX=0.5;entryY=1;entryDx=0;entryDy=0;exitX=0.5;exitY=0;exitDx=0;exitDy=0;" edge="1" parent="1" source="Pn6tv7g3iC-lhxeTIys7-4" target="Pn6tv7g3iC-lhxeTIys7-71">
          <mxGeometry width="50" height="50" relative="1" as="geometry">
            <mxPoint x="885" y="130" as="sourcePoint" />
            <mxPoint x="820" y="60" as="targetPoint" />
          </mxGeometry>
        </mxCell>
        <mxCell id="Pn6tv7g3iC-lhxeTIys7-82" value="" style="endArrow=none;html=1;entryX=0.5;entryY=1;entryDx=0;entryDy=0;exitX=0.5;exitY=0;exitDx=0;exitDy=0;" edge="1" parent="1" source="Pn6tv7g3iC-lhxeTIys7-4" target="Pn6tv7g3iC-lhxeTIys7-72">
          <mxGeometry width="50" height="50" relative="1" as="geometry">
            <mxPoint x="885" y="130" as="sourcePoint" />
            <mxPoint x="890" y="60" as="targetPoint" />
          </mxGeometry>
        </mxCell>
        <mxCell id="Pn6tv7g3iC-lhxeTIys7-83" value="" style="endArrow=none;html=1;entryX=0.5;entryY=1;entryDx=0;entryDy=0;exitX=0.5;exitY=0;exitDx=0;exitDy=0;" edge="1" parent="1" source="Pn6tv7g3iC-lhxeTIys7-4" target="Pn6tv7g3iC-lhxeTIys7-74">
          <mxGeometry width="50" height="50" relative="1" as="geometry">
            <mxPoint x="885" y="130" as="sourcePoint" />
            <mxPoint x="960" y="60" as="targetPoint" />
          </mxGeometry>
        </mxCell>
        <mxCell id="Pn6tv7g3iC-lhxeTIys7-84" value="" style="endArrow=none;html=1;entryX=0.5;entryY=1;entryDx=0;entryDy=0;exitX=0.5;exitY=0;exitDx=0;exitDy=0;" edge="1" parent="1" source="Pn6tv7g3iC-lhxeTIys7-4" target="Pn6tv7g3iC-lhxeTIys7-75">
          <mxGeometry width="50" height="50" relative="1" as="geometry">
            <mxPoint x="1010" y="160" as="sourcePoint" />
            <mxPoint x="1030" y="60" as="targetPoint" />
          </mxGeometry>
        </mxCell>
        <mxCell id="Pn6tv7g3iC-lhxeTIys7-85" value="번호" style="ellipse;whiteSpace=wrap;html=1;" vertex="1" parent="1">
          <mxGeometry x="-310" y="40" width="60" height="40" as="geometry" />
        </mxCell>
        <mxCell id="Pn6tv7g3iC-lhxeTIys7-86" value="제목" style="ellipse;whiteSpace=wrap;html=1;" vertex="1" parent="1">
          <mxGeometry x="-240" y="40" width="60" height="40" as="geometry" />
        </mxCell>
        <mxCell id="Pn6tv7g3iC-lhxeTIys7-87" value="작성자" style="ellipse;whiteSpace=wrap;html=1;" vertex="1" parent="1">
          <mxGeometry x="-170" y="40" width="60" height="40" as="geometry" />
        </mxCell>
        <mxCell id="Pn6tv7g3iC-lhxeTIys7-88" value="등록일" style="ellipse;whiteSpace=wrap;html=1;" vertex="1" parent="1">
          <mxGeometry x="-95" y="40" width="60" height="40" as="geometry" />
        </mxCell>
        <mxCell id="Pn6tv7g3iC-lhxeTIys7-90" value="" style="endArrow=none;html=1;entryX=0.5;entryY=1;entryDx=0;entryDy=0;exitX=0.5;exitY=0;exitDx=0;exitDy=0;" edge="1" parent="1" source="Pn6tv7g3iC-lhxeTIys7-5" target="Pn6tv7g3iC-lhxeTIys7-85">
          <mxGeometry width="50" height="50" relative="1" as="geometry">
            <mxPoint x="245" y="130" as="sourcePoint" />
            <mxPoint x="70" y="90" as="targetPoint" />
          </mxGeometry>
        </mxCell>
        <mxCell id="Pn6tv7g3iC-lhxeTIys7-91" value="" style="endArrow=none;html=1;entryX=0.5;entryY=1;entryDx=0;entryDy=0;exitX=0.5;exitY=0;exitDx=0;exitDy=0;" edge="1" parent="1" source="Pn6tv7g3iC-lhxeTIys7-5" target="Pn6tv7g3iC-lhxeTIys7-86">
          <mxGeometry width="50" height="50" relative="1" as="geometry">
            <mxPoint x="-165" y="130" as="sourcePoint" />
            <mxPoint x="-270" y="90" as="targetPoint" />
          </mxGeometry>
        </mxCell>
        <mxCell id="Pn6tv7g3iC-lhxeTIys7-92" value="" style="endArrow=none;html=1;entryX=0.5;entryY=1;entryDx=0;entryDy=0;exitX=0.5;exitY=0;exitDx=0;exitDy=0;" edge="1" parent="1" source="Pn6tv7g3iC-lhxeTIys7-5" target="Pn6tv7g3iC-lhxeTIys7-87">
          <mxGeometry width="50" height="50" relative="1" as="geometry">
            <mxPoint x="-100" y="110" as="sourcePoint" />
            <mxPoint x="-200" y="90" as="targetPoint" />
          </mxGeometry>
        </mxCell>
        <mxCell id="Pn6tv7g3iC-lhxeTIys7-93" value="" style="endArrow=none;html=1;entryX=0.5;entryY=1;entryDx=0;entryDy=0;exitX=0.5;exitY=0;exitDx=0;exitDy=0;" edge="1" parent="1" source="Pn6tv7g3iC-lhxeTIys7-5" target="Pn6tv7g3iC-lhxeTIys7-88">
          <mxGeometry width="50" height="50" relative="1" as="geometry">
            <mxPoint x="-165" y="130" as="sourcePoint" />
            <mxPoint x="-130" y="90" as="targetPoint" />
          </mxGeometry>
        </mxCell>
        <mxCell id="Pn6tv7g3iC-lhxeTIys7-96" value="" style="endArrow=ERone;html=1;entryX=0.5;entryY=1;entryDx=0;entryDy=0;exitX=0;exitY=0.5;exitDx=0;exitDy=0;startArrow=ERzeroToMany;startFill=1;endFill=0;" edge="1" parent="1" source="Pn6tv7g3iC-lhxeTIys7-3" target="Pn6tv7g3iC-lhxeTIys7-1">
          <mxGeometry width="50" height="50" relative="1" as="geometry">
            <mxPoint x="250" y="340" as="sourcePoint" />
            <mxPoint x="300" y="290" as="targetPoint" />
          </mxGeometry>
        </mxCell>
        <mxCell id="Pn6tv7g3iC-lhxeTIys7-97" value="" style="endArrow=ERzeroToMany;html=1;entryX=1;entryY=0.5;entryDx=0;entryDy=0;exitX=0.5;exitY=0;exitDx=0;exitDy=0;startArrow=ERone;startFill=0;endFill=1;" edge="1" parent="1" source="Pn6tv7g3iC-lhxeTIys7-2" target="Pn6tv7g3iC-lhxeTIys7-3">
          <mxGeometry width="50" height="50" relative="1" as="geometry">
            <mxPoint x="245" y="235" as="sourcePoint" />
            <mxPoint x="245" y="170" as="targetPoint" />
          </mxGeometry>
        </mxCell>
        <mxCell id="Pn6tv7g3iC-lhxeTIys7-98" value="" style="endArrow=ERoneToMany;html=1;exitX=1;exitY=0.5;exitDx=0;exitDy=0;entryX=0;entryY=0.5;entryDx=0;entryDy=0;endFill=0;startArrow=ERone;startFill=0;" edge="1" parent="1" source="Pn6tv7g3iC-lhxeTIys7-2" target="Pn6tv7g3iC-lhxeTIys7-6">
          <mxGeometry width="50" height="50" relative="1" as="geometry">
            <mxPoint x="540" y="340" as="sourcePoint" />
            <mxPoint x="590" y="290" as="targetPoint" />
          </mxGeometry>
        </mxCell>
        <mxCell id="Pn6tv7g3iC-lhxeTIys7-99" value="강의에 대해 출석 정보를 저장할 수 있다" style="shape=note;whiteSpace=wrap;html=1;backgroundOutline=1;darkOpacity=0.05;" vertex="1" parent="1">
          <mxGeometry x="425" y="330" width="280" height="30" as="geometry" />
        </mxCell>
        <mxCell id="Pn6tv7g3iC-lhxeTIys7-100" value="" style="endArrow=ERzeroToMany;html=1;exitX=1;exitY=0.5;exitDx=0;exitDy=0;entryX=0;entryY=0.5;entryDx=0;entryDy=0;startArrow=ERone;startFill=0;endFill=1;" edge="1" parent="1" source="Pn6tv7g3iC-lhxeTIys7-1" target="Pn6tv7g3iC-lhxeTIys7-4">
          <mxGeometry width="50" height="50" relative="1" as="geometry">
            <mxPoint x="540" y="320" as="sourcePoint" />
            <mxPoint x="590" y="270" as="targetPoint" />
          </mxGeometry>
        </mxCell>
        <mxCell id="Pn6tv7g3iC-lhxeTIys7-101" value="" style="endArrow=ERone;html=1;exitX=1;exitY=0.5;exitDx=0;exitDy=0;entryX=0;entryY=0.5;entryDx=0;entryDy=0;startArrow=ERzeroToMany;startFill=1;endFill=0;" edge="1" parent="1" source="Pn6tv7g3iC-lhxeTIys7-5" target="Pn6tv7g3iC-lhxeTIys7-1">
          <mxGeometry width="50" height="50" relative="1" as="geometry">
            <mxPoint x="80" y="220" as="sourcePoint" />
            <mxPoint x="130" y="170" as="targetPoint" />
          </mxGeometry>
        </mxCell>
      </root>
    </mxGraphModel>
  </diagram>
</mxfile>
